<?xml version="1.0" encoding="UTF-8" standalone="no"?>
<!-- Created with Inkscape (http://www.inkscape.org/) -->

<svg
   xmlns:dc="http://purl.org/dc/elements/1.1/"
   xmlns:cc="http://creativecommons.org/ns#"
   xmlns:rdf="http://www.w3.org/1999/02/22-rdf-syntax-ns#"
   xmlns:svg="http://www.w3.org/2000/svg"
   xmlns="http://www.w3.org/2000/svg"
   xmlns:xlink="http://www.w3.org/1999/xlink"
   xmlns:sodipodi="http://sodipodi.sourceforge.net/DTD/sodipodi-0.dtd"
   xmlns:inkscape="http://www.inkscape.org/namespaces/inkscape"
   width="15.999999"
   height="16"
   viewBox="0 0 16.784644 16.784643"
   id="svg2"
   version="1.1"
   inkscape:version="0.92.3 (2405546, 2018-03-11)"
   sodipodi:docname="Cloud9_icon.svg">
  <defs
     id="defs4">
    <linearGradient
       id="0">
      <stop
         id="stop3450"
         stop-color="#00aaec" />
      <stop
         id="stop3452"
         offset="1"
         stop-color="#0076d0" />
    </linearGradient>
    <linearGradient
       gradientUnits="userSpaceOnUse"
       x2="641.65002"
       x1="255.67"
       id="1"
       xlink:href="#0"
       gradientTransform="matrix(0.04348651,0,0,0.06046931,-87.103966,721.80088)" />
    <linearGradient
       gradientUnits="userSpaceOnUse"
       x2="861.70001"
       x1="725.20001"
       id="2"
       xlink:href="#0"
       gradientTransform="matrix(0.49970371,0,0,0.49970371,-203.7468,569.0494)" />
  </defs>
  <sodipodi:namedview
     id="base"
     pagecolor="#ffffff"
     bordercolor="#666666"
     borderopacity="1.0"
     inkscape:pageopacity="0.0"
     inkscape:pageshadow="2"
     inkscape:zoom="3.959798"
     inkscape:cx="11.902341"
     inkscape:cy="-7.8666032"
     inkscape:document-units="px"
     inkscape:current-layer="layer1"
     showgrid="false"
     fit-margin-top="0"
     fit-margin-left="0"
     fit-margin-right="0"
     fit-margin-bottom="0"
     inkscape:window-width="1366"
     inkscape:window-height="723"
     inkscape:window-x="0"
     inkscape:window-y="22"
     inkscape:window-maximized="1" />
  <metadata
     id="metadata7">
    <rdf:RDF>
      <cc:Work
         rdf:about="">
        <dc:format>image/svg+xml</dc:format>
        <dc:type
           rdf:resource="http://purl.org/dc/dcmitype/StillImage" />
        <dc:title></dc:title>
      </cc:Work>
    </rdf:RDF>
  </metadata>
  <g
     inkscape:label="Layer 1"
     inkscape:groupmode="layer"
     id="layer1"
     transform="translate(75.9856,-726.0455)">
    <path
       style="fill:url(#1);stroke:none;stroke-width:0.05127962"
       inkscape:connector-curvature="0"
       d="m -69.578903,727.00003 c 1.241105,-1.3267 3.171907,-1.27409 4.348217,0.1808 0.800152,0.97477 1.147174,2.54153 1.009322,3.98735 -0.107847,0.87015 -0.391814,1.67258 -0.680564,2.45082 -0.494442,1.25776 -0.988014,2.51734 -1.485934,3.77268 0.938439,0.72503 1.875138,1.45368 2.812707,2.17992 0.230914,0.18624 0.478787,0.33439 0.736662,0.43296 0.443997,0.17476 0.959312,0.0115 1.281547,-0.45775 0.480526,-0.67 0.487049,-1.87637 0.01261,-2.55483 -0.437474,-0.65791 -1.205011,-0.69238 -1.747723,-0.28421 -0.422688,0.34347 -0.572282,1.05821 -0.5962,1.69798 -0.589677,-0.4505 -1.184572,-0.88587 -1.776424,-1.33093 0.207431,-1.27288 0.852336,-2.37342 1.697714,-2.93397 1.318076,-0.88648 3.070582,-0.4759 4.021632,1.11324 1.013671,1.7131 0.994537,4.4711 -0.07262,6.13159 -0.592721,0.94029 -1.495501,1.43675 -2.38567,1.44159 -0.738836,0.0435 -1.424183,-0.41482 -2.072567,-0.85081 -2.441768,-1.83101 -4.861793,-3.71704 -7.295298,-5.56983 -0.367461,-0.24973 -0.783627,-0.47105 -1.198053,-0.34165 -0.427907,0.10099 -0.794499,0.55027 -0.940178,1.11506 -0.166989,0.66093 -0.07088,1.46456 0.297012,1.96162 0.434865,0.60772 1.159351,0.6434 1.687712,0.26788 0.445302,-0.32593 0.601418,-1.06184 0.62925,-1.7137 0.591851,0.44264 1.187616,0.8762 1.774249,1.33153 -0.298752,1.93261 -1.644225,3.38689 -3.057536,3.38084 -0.858859,0.0508 -1.74033,-0.34044 -2.377843,-1.15436 -1.441578,-1.80621 -1.360258,-5.43377 0.19482,-7.07249 0.911042,-0.96146 2.200417,-1.1985 3.252791,-0.56297 1.179789,0.66759 2.243469,1.66412 3.389339,2.43087 0.550974,-1.37144 1.104122,-2.74107 1.653792,-4.11373 0.205691,-0.56296 0.376158,-1.21845 0.237001,-1.85036 -0.153072,-0.83326 -0.793628,-1.37446 -1.397221,-1.2626 -0.558367,0.0508 -1.061071,0.67363 -1.141956,1.44885 -0.05697,0.58957 0.0022,1.25595 0.305275,1.70765 0.278314,0.40575 0.69274,0.53576 1.08064,0.57567 -0.32267,0.82117 -0.62838,1.65626 -0.963661,2.46715 -1.254586,-0.39305 -2.248688,-1.95014 -2.400456,-3.72068 -0.162204,-1.58248 0.24222,-3.30707 1.167613,-4.30118"
       id="path3458" />
  </g>
</svg>
