<?xml version="1.0" encoding="UTF-8" standalone="no"?>
<!-- Created with Inkscape (http://www.inkscape.org/) -->

<svg
   xmlns:dc="http://purl.org/dc/elements/1.1/"
   xmlns:cc="http://creativecommons.org/ns#"
   xmlns:rdf="http://www.w3.org/1999/02/22-rdf-syntax-ns#"
   xmlns:svg="http://www.w3.org/2000/svg"
   xmlns="http://www.w3.org/2000/svg"
   xmlns:sodipodi="http://sodipodi.sourceforge.net/DTD/sodipodi-0.dtd"
   xmlns:inkscape="http://www.inkscape.org/namespaces/inkscape"
   version="1.1"
   id="svg815"
   width="49.996933"
   height="50.010654"
   viewBox="0 0 49.996934 50.010655"
   sodipodi:docname="chat-icon.svg"
   inkscape:version="0.92.3 (2405546, 2018-03-11)">
  <metadata
     id="metadata821">
    <rdf:RDF>
      <cc:Work
         rdf:about="">
        <dc:format>image/svg+xml</dc:format>
        <dc:type
           rdf:resource="http://purl.org/dc/dcmitype/StillImage" />
        <dc:title />
      </cc:Work>
    </rdf:RDF>
  </metadata>
  <defs
     id="defs819" />
  <sodipodi:namedview
     pagecolor="#ffffff"
     bordercolor="#666666"
     borderopacity="1"
     objecttolerance="10"
     gridtolerance="10"
     guidetolerance="10"
     inkscape:pageopacity="0"
     inkscape:pageshadow="2"
     inkscape:window-width="1366"
     inkscape:window-height="723"
     id="namedview817"
     showgrid="false"
     inkscape:zoom="4"
     inkscape:cx="4.1593711"
     inkscape:cy="16.382957"
     inkscape:window-x="0"
     inkscape:window-y="22"
     inkscape:window-maximized="1"
     inkscape:current-layer="svg815" />
  <path
     style="color:#000000;font-style:normal;font-variant:normal;font-weight:normal;font-stretch:normal;font-size:medium;line-height:normal;font-family:sans-serif;font-variant-ligatures:normal;font-variant-position:normal;font-variant-caps:normal;font-variant-numeric:normal;font-variant-alternates:normal;font-feature-settings:normal;text-indent:0;text-align:start;text-decoration:none;text-decoration-line:none;text-decoration-style:solid;text-decoration-color:#000000;letter-spacing:normal;word-spacing:normal;text-transform:none;writing-mode:lr-tb;direction:ltr;text-orientation:mixed;dominant-baseline:auto;baseline-shift:baseline;text-anchor:start;white-space:normal;shape-padding:0;clip-rule:nonzero;display:inline;overflow:visible;visibility:visible;opacity:1;isolation:auto;mix-blend-mode:normal;color-interpolation:sRGB;color-interpolation-filters:linearRGB;solid-color:#000000;solid-opacity:1;vector-effect:none;fill:#000000;fill-opacity:1;fill-rule:evenodd;stroke:#000000;stroke-width:1;stroke-linecap:round;stroke-linejoin:round;stroke-miterlimit:4;stroke-dasharray:none;stroke-dashoffset:0;stroke-opacity:1;color-rendering:auto;image-rendering:auto;shape-rendering:auto;text-rendering:auto;enable-background:accumulate"
     d="M 20.390625,-0.49609375 C 9.7322316,-0.49630646 1.1462871,8.7543291 1.1464844,20.048828 c 0.00521,3.000727 0.654478,5.949627 1.8457031,8.664063 0.1616873,1.945031 -0.3029659,4.922816 -3.28320312,9.021484 a 0.50005,0.50005 0 0 0 0,0.002 c -0.48641933,0.671508 -0.0363735,1.66747 0.7890625,1.746094 4.07840242,0.380019 9.00853142,1.276125 13.34765612,-0.171875 2.093823,0.818799 4.30123,1.275444 6.541016,1.283203 a 0.50005,0.50005 0 0 0 0.002,0 c 0,0 0.002,0 0.002,0 10.65836,2.25e-4 19.24629,-9.250353 19.246094,-20.544922 C 39.636915,8.7542584 31.04903,-0.49631975 20.390625,-0.49609375 Z m 0,1 C 30.470146,0.50369253 38.636906,9.2600686 38.636719,20.048828 38.636906,30.837587 30.470097,39.593963 20.390625,39.59375 h -0.002 c -2.162701,-0.0078 -4.304491,-0.4474 -6.333984,-1.261719 a 0.50005,0.50005 0 0 0 -0.351563,-0.0078 C 9.6704856,39.738517 4.7973459,38.878195 0.59179688,38.486328 0.4875588,38.476399 0.4561519,38.407065 0.51757812,38.322266 1.1594942,37.439329 1.6340603,36.624957 2.0742188,35.828125 1.7439742,36.439875 1.6529381,36.932418 1.2128906,37.591797 a 0.50005,0.50005 0 0 0 0.3652344,0.775391 c 4.0680131,0.41915 8.57477,1.100168 12.28125,-0.28711 0.02477,-0.0093 0.05174,-0.01015 0.07617,0 2.059754,0.855293 4.246861,1.297062 6.455078,1.304688 a 0.50005,0.50005 0 0 0 0.002,0 C 30.351106,39.383792 38.429873,30.73238 38.429688,20.048828 38.429873,9.3645465 30.350147,0.71072636 20.390625,0.7109375 10.431747,0.71073872 2.3543534,9.3636507 2.3535156,20.046875 v 0.002 c 0.00539,2.937057 0.6344797,5.833615 1.8398438,8.470703 a 0.50005,0.50005 0 0 0 0,0.002 c 0.00496,0.0108 0.00873,0.02136 0.00977,0.0332 a 0.50005,0.50005 0 0 0 0,0.002 c 0.1262651,1.429088 -0.4028241,3.481097 -1.40625,5.792968 1.0359646,-2.35098 1.3190025,-4.304268 1.1953125,-5.748047 A 0.50005,0.50005 0 0 0 3.9511719,28.441406 C 2.7791522,25.817316 2.1515305,22.954869 2.1464844,20.048828 2.1462959,9.2600227 10.311116,0.5037051 20.390625,0.50390625 Z m 0,1.20703125 C 29.770649,1.7107386 37.429864,9.867421 37.429688,20.048828 37.429864,30.228821 29.772833,38.3827 20.394531,38.384766 18.317084,38.377591 16.258989,37.96403 14.318359,37.158203 14.059902,37.050852 13.769886,37.044384 13.507812,37.142578 10.352399,38.323601 6.2825135,37.840737 2.3945312,37.429688 4.6647969,33.754756 5.3926415,30.662607 5.1992188,28.46875 5.1882506,28.343346 5.155826,28.219958 5.1035156,28.105469 v -0.002 c -1.1444594,-2.504489 -1.7448736,-5.259982 -1.75,-8.054688 v -0.002 C 3.354314,9.8663723 11.011211,1.7107503 20.390625,1.7109375 Z"
     id="path933"
     inkscape:connector-curvature="0" />
  <path
     style="color:#000000;font-style:normal;font-variant:normal;font-weight:normal;font-stretch:normal;font-size:medium;line-height:normal;font-family:sans-serif;font-variant-ligatures:normal;font-variant-position:normal;font-variant-caps:normal;font-variant-numeric:normal;font-variant-alternates:normal;font-feature-settings:normal;text-indent:0;text-align:start;text-decoration:none;text-decoration-line:none;text-decoration-style:solid;text-decoration-color:#000000;letter-spacing:normal;word-spacing:normal;text-transform:none;writing-mode:lr-tb;direction:ltr;text-orientation:mixed;dominant-baseline:auto;baseline-shift:baseline;text-anchor:start;white-space:normal;shape-padding:0;clip-rule:nonzero;display:inline;overflow:visible;visibility:visible;opacity:1;isolation:auto;mix-blend-mode:normal;color-interpolation:sRGB;color-interpolation-filters:linearRGB;solid-color:#000000;solid-opacity:1;vector-effect:none;fill:#000000;fill-opacity:1;fill-rule:evenodd;stroke:#000000;stroke-width:1;stroke-linecap:round;stroke-linejoin:round;stroke-miterlimit:4;stroke-dasharray:none;stroke-dashoffset:0;stroke-opacity:1;color-rendering:auto;image-rendering:auto;shape-rendering:auto;text-rendering:auto;enable-background:accumulate"
     d="m 42.605469,15.291016 c -0.145768,-0.01766 -0.300257,-0.01551 -0.470703,0.04687 -0.158728,0.05809 -0.325615,0.211553 -0.414063,0.40625 -0.121192,0.246422 -0.115538,0.492193 -0.06641,0.695312 0.05244,0.216797 0.14383,0.417286 0.251953,0.617188 0.216245,0.399804 0.504464,0.790959 0.753906,1.089843 2.503754,3.183937 4.021565,7.291842 4.021485,11.796875 -0.0045,2.786429 -0.603255,5.532922 -1.746094,8.033203 -0.05514,0.120594 -0.08808,0.249751 -0.09961,0.38086 -0.194943,2.206276 0.632541,5.309807 2.863281,8.943359 -3.909561,0.412687 -8.01965,0.907358 -11.210938,-0.287109 -0.247766,-0.09272 -0.525897,-0.08914 -0.771484,0.01367 -1.944657,0.807494 -4.010252,1.22661 -6.09375,1.234375 -4.980812,9.7e-5 -9.442875,-2.297647 -12.566406,-5.957031 -0.04348,-0.06843 -0.08621,-0.136865 -0.140625,-0.197266 a 0.50005,0.50005 0 0 0 -0.002,-0.002 c -0.227359,-0.250434 -0.533804,-0.420143 -0.884765,-0.429688 -0.281068,-0.0079 -0.568491,0.106319 -0.761719,0.320313 -0.320893,0.354892 -0.286832,0.813904 -0.115234,1.224609 a 0.50005,0.50005 0 0 0 0.113281,0.326172 c 0.03696,0.04489 0.03374,0.03934 0.03516,0.03906 a 0.50005,0.50005 0 0 0 0.0078,0.0098 c 0.01677,0.02159 0.03477,0.04189 0.05273,0.0625 a 0.50005,0.50005 0 0 0 0.0059,0.0059 c 0.01673,0.01861 0.03505,0.03502 0.05273,0.05273 3.508743,4.142805 8.555497,6.793084 14.203125,6.792969 h 0.002 a 0.50005,0.50005 0 0 0 0.002,0 c 2.2379,-0.0075 4.445336,-0.464218 6.539063,-1.285157 4.328186,1.453258 9.254342,0.556829 13.34375,0.175782 0.853159,-0.07998 1.26478,-1.112832 0.769531,-1.796875 a 0.50005,0.50005 0 0 0 -0.002,0 c -2.974901,-4.091326 -3.434069,-7.051363 -3.275391,-8.980469 1.190096,-2.716581 1.840954,-5.672235 1.845703,-8.677735 7e-5,-5.59314 -2.062317,-10.531271 -5.46289,-14.238281 -0.21922,-0.291668 -0.487593,-0.380899 -0.775391,-0.416015 a 0.50005,0.50005 0 0 0 -0.0039,0 z m 0.0039,0 0.230469,0.0918 a 0.50005,0.50005 0 0 0 -0.230469,-0.0918 z m 0.154297,1.242187 c 3.161389,3.512517 5.083568,8.132951 5.083984,13.410156 -0.0046,2.910694 -0.633789,5.780049 -1.804687,8.40625 a 0.50005,0.50005 0 0 0 -0.04102,0.16211 c -0.09816,1.154888 0.04869,2.632263 0.636719,4.380859 -0.61556,-1.754216 -0.907965,-3.300519 -0.806641,-4.447266 0.0017,-0.01928 0.0068,-0.03769 0.01367,-0.05273 1.203121,-2.632167 1.831223,-5.518952 1.835938,-8.447266 a 0.50005,0.50005 0 0 0 0,-0.002 c 8.4e-5,-4.735014 -1.59772,-9.067676 -4.244141,-12.427734 a 0.50005,0.50005 0 0 0 -0.0078,-0.0098 c -0.216648,-0.259588 -0.479563,-0.618825 -0.644532,-0.923828 -0.01074,-0.01986 -0.01164,-0.02947 -0.02148,-0.04883 z m -26.75,26.148438 c 0.0274,0.0036 0.09502,0.02396 0.160156,0.0957 0.02357,0.02636 0.0454,0.05604 0.0625,0.08789 a 0.50005,0.50005 0 0 0 0.06055,0.08789 c 3.295193,3.860496 8.037438,6.308697 13.326172,6.308594 a 0.50005,0.50005 0 0 0 0.002,0 c 2.215585,-0.008 4.412454,-0.453451 6.476562,-1.310547 0.01297,-0.0054 0.02109,-0.0072 0.03516,-0.002 3.745344,1.401845 8.296958,0.704177 12.382812,0.285156 a 0.50005,0.50005 0 0 0 0.365235,-0.771484 c -0.238885,-0.362117 -0.273369,-0.627475 -0.480469,-0.976563 0.342215,0.563465 0.625105,1.100851 1.064453,1.705078 0.06807,0.09719 0.01544,0.206683 -0.05078,0.212891 -4.216148,0.392857 -9.088111,1.253728 -13.107422,-0.164063 a 0.50005,0.50005 0 0 0 -0.353516,0.0078 c -2.029745,0.816921 -4.171864,1.256395 -6.333984,1.263672 v -0.002 c -5.335092,1.08e-4 -10.099812,-2.496309 -13.439453,-6.439454 a 0.50005,0.50005 0 0 0 -0.04883,-0.05078 l -0.0098,-0.0078 c -0.0017,-0.0015 -0.0022,-0.0024 -0.0039,-0.0039 -0.0019,-0.002 -0.0039,-0.0038 -0.0059,-0.0059 L 16.113281,43 c -6.34e-4,-6.88e-4 -0.0013,-0.0013 -0.002,-0.002 -6.32e-4,-6.94e-4 -0.0013,-0.0013 -0.002,-0.002 l -0.002,-0.0039 c -0.0027,-0.0033 -0.0052,-0.0064 -0.0078,-0.0098 a 0.50005,0.50005 0 0 0 -0.01367,-0.01563 0.50005,0.50005 0 0 0 -0.0039,-0.0059 0.50005,0.50005 0 0 0 -0.0059,-0.0098 c -0.09974,-0.14063 -0.06208,-0.261156 -0.0625,-0.269531 z"
     id="path969"
     inkscape:connector-curvature="0" />
</svg>
