<?xml version="1.0" encoding="UTF-8" standalone="no"?>
<!-- Created with Inkscape (http://www.inkscape.org/) -->

<svg
   xmlns:dc="http://purl.org/dc/elements/1.1/"
   xmlns:cc="http://creativecommons.org/ns#"
   xmlns:rdf="http://www.w3.org/1999/02/22-rdf-syntax-ns#"
   xmlns:svg="http://www.w3.org/2000/svg"
   xmlns="http://www.w3.org/2000/svg"
   xmlns:xlink="http://www.w3.org/1999/xlink"
   xmlns:sodipodi="http://sodipodi.sourceforge.net/DTD/sodipodi-0.dtd"
   xmlns:inkscape="http://www.inkscape.org/namespaces/inkscape"
   width="7.0000038"
   height="5.4999461"
   viewBox="0 0 7.3432861 5.769665"
   id="svg2"
   version="1.1"
   inkscape:version="0.92.3 (2405546, 2018-03-11)"
   sodipodi:docname="Cloud9_icon.svg">
  <defs
     id="defs4">
    <linearGradient
       id="0">
      <stop
         id="stop3450"
         stop-color="#00aaec" />
      <stop
         id="stop3452"
         offset="1"
         stop-color="#0076d0" />
    </linearGradient>
    <linearGradient
       gradientUnits="userSpaceOnUse"
       x2="641.65002"
       x1="255.67"
       id="1"
       xlink:href="#0"
       gradientTransform="matrix(0.01902537,0,0,0.02078631,-80.849874,735.60135)" />
    <linearGradient
       gradientUnits="userSpaceOnUse"
       x2="861.70001"
       x1="725.20001"
       id="2"
       xlink:href="#0"
       gradientTransform="matrix(0.49970371,0,0,0.49970371,-203.7468,569.0494)" />
  </defs>
  <sodipodi:namedview
     id="base"
     pagecolor="#ffffff"
     bordercolor="#666666"
     borderopacity="1.0"
     inkscape:pageopacity="0.0"
     inkscape:pageshadow="2"
     inkscape:zoom="7.919596"
     inkscape:cx="17.457688"
     inkscape:cy="-7.7514472"
     inkscape:document-units="px"
     inkscape:current-layer="layer1"
     showgrid="false"
     fit-margin-top="0"
     fit-margin-left="0"
     fit-margin-right="0"
     fit-margin-bottom="0"
     inkscape:window-width="1366"
     inkscape:window-height="723"
     inkscape:window-x="0"
     inkscape:window-y="22"
     inkscape:window-maximized="1" />
  <metadata
     id="metadata7">
    <rdf:RDF>
      <cc:Work
         rdf:about="">
        <dc:format>image/svg+xml</dc:format>
        <dc:type
           rdf:resource="http://purl.org/dc/dcmitype/StillImage" />
        <dc:title />
      </cc:Work>
    </rdf:RDF>
  </metadata>
  <g
     inkscape:label="Layer 1"
     inkscape:groupmode="layer"
     id="layer1"
     transform="translate(75.985599,-737.06043)">
    <path
       style="fill:url(#1);stroke:none;stroke-width:0.01988635"
       inkscape:connector-curvature="0"
       d="m -73.182651,737.38855 c 0.542983,-0.45605 1.387711,-0.43796 1.902346,0.0621 0.350067,0.33507 0.501889,0.87365 0.441579,1.37066 -0.04719,0.29911 -0.171419,0.57494 -0.297747,0.84246 -0.216319,0.43235 -0.432257,0.86534 -0.650097,1.29687 0.410567,0.24922 0.820374,0.4997 1.23056,0.74934 0.101025,0.064 0.209469,0.11494 0.32229,0.14883 0.194248,0.0601 0.4197,0.003 0.560677,-0.15735 0.21023,-0.23032 0.213084,-0.64501 0.0055,-0.87823 -0.191395,-0.22615 -0.527192,-0.238 -0.764629,-0.0977 -0.184926,0.11806 -0.250374,0.36375 -0.260838,0.58368 -0.257983,-0.15487 -0.51825,-0.30453 -0.777185,-0.45751 0.09075,-0.43755 0.372897,-0.81587 0.74275,-1.00856 0.576657,-0.30472 1.34338,-0.16358 1.759465,0.38269 0.443481,0.58887 0.43511,1.53693 -0.03177,2.10773 -0.259317,0.32321 -0.654284,0.49387 -1.043732,0.49554 -0.323241,0.015 -0.62308,-0.14259 -0.906749,-0.29246 -1.068274,-0.62942 -2.127035,-1.27774 -3.191694,-1.91463 -0.160765,-0.0859 -0.342838,-0.16193 -0.524149,-0.11744 -0.18721,0.0348 -0.347594,0.18914 -0.411328,0.38329 -0.07306,0.22721 -0.03101,0.50344 0.129943,0.67431 0.190253,0.20892 0.507216,0.22118 0.738374,0.0921 0.19482,-0.11205 0.263121,-0.36502 0.275297,-0.58909 0.258935,0.15216 0.519583,0.30118 0.776234,0.4577 -0.130703,0.66434 -0.719348,1.16425 -1.337673,1.16216 -0.37575,0.0174 -0.761394,-0.11701 -1.040306,-0.3968 -0.630691,-0.62088 -0.595114,-1.86785 0.08523,-2.43117 0.398582,-0.3305 0.962683,-0.41198 1.423098,-0.19352 0.516157,0.22948 0.981518,0.57204 1.482836,0.83561 0.241051,-0.47143 0.483054,-0.94224 0.723534,-1.41409 0.08999,-0.19352 0.16457,-0.41885 0.103689,-0.63606 -0.06697,-0.28644 -0.347212,-0.47247 -0.611286,-0.43401 -0.244285,0.0174 -0.464218,0.23154 -0.499604,0.49803 -0.02493,0.20267 9.1e-4,0.43174 0.133557,0.587 0.121762,0.13948 0.303074,0.18417 0.472781,0.19789 -0.141169,0.28227 -0.274917,0.56934 -0.421602,0.84808 -0.548882,-0.13511 -0.983802,-0.67036 -1.050201,-1.27898 -0.07096,-0.54397 0.105971,-1.13681 0.510831,-1.47853"
       id="path3458" />
  </g>
</svg>
