<?xml version="1.0" encoding="UTF-8" standalone="no"?>
<!-- Created with Inkscape (http://www.inkscape.org/) -->

<svg
   xmlns:dc="http://purl.org/dc/elements/1.1/"
   xmlns:cc="http://creativecommons.org/ns#"
   xmlns:rdf="http://www.w3.org/1999/02/22-rdf-syntax-ns#"
   xmlns:svg="http://www.w3.org/2000/svg"
   xmlns="http://www.w3.org/2000/svg"
   xmlns:xlink="http://www.w3.org/1999/xlink"
   xmlns:sodipodi="http://sodipodi.sourceforge.net/DTD/sodipodi-0.dtd"
   xmlns:inkscape="http://www.inkscape.org/namespaces/inkscape"
   width="20.000002"
   height="15"
   viewBox="0 0 20.980808 15.735603"
   id="svg2"
   version="1.1"
   inkscape:version="0.92.3 (2405546, 2018-03-11)"
   sodipodi:docname="Cloud9_logo.svg">
  <defs
     id="defs4">
    <linearGradient
       id="0">
      <stop
         id="stop3450"
         stop-color="#00aaec" />
      <stop
         id="stop3452"
         offset="1"
         stop-color="#0076d0" />
    </linearGradient>
    <linearGradient
       gradientUnits="userSpaceOnUse"
       x2="641.65002"
       x1="255.67"
       id="1"
       xlink:href="#0"
       gradientTransform="matrix(0.05435814,0,0,0.05668986,-89.88356,723.11517)" />
    <linearGradient
       gradientUnits="userSpaceOnUse"
       x2="861.70001"
       x1="725.20001"
       id="2"
       xlink:href="#0"
       gradientTransform="matrix(0.49970371,0,0,0.49970371,-203.7468,569.0494)" />
  </defs>
  <sodipodi:namedview
     id="base"
     pagecolor="#ffffff"
     bordercolor="#666666"
     borderopacity="1.0"
     inkscape:pageopacity="0.0"
     inkscape:pageshadow="2"
     inkscape:zoom="1.979899"
     inkscape:cx="49.335892"
     inkscape:cy="2.7156691"
     inkscape:document-units="px"
     inkscape:current-layer="layer1"
     showgrid="false"
     fit-margin-top="0"
     fit-margin-left="0"
     fit-margin-right="0"
     fit-margin-bottom="0"
     inkscape:window-width="864"
     inkscape:window-height="555"
     inkscape:window-x="538"
     inkscape:window-y="59"
     inkscape:window-maximized="0" />
  <metadata
     id="metadata7">
    <rdf:RDF>
      <cc:Work
         rdf:about="">
        <dc:format>image/svg+xml</dc:format>
        <dc:type
           rdf:resource="http://purl.org/dc/dcmitype/StillImage" />
        <dc:title />
      </cc:Work>
    </rdf:RDF>
  </metadata>
  <g
     inkscape:label="Layer 1"
     inkscape:groupmode="layer"
     id="layer1"
     transform="translate(75.985606,-727.09454)">
    <path
       style="fill:url(#1);stroke:none;stroke-width:0.05551176"
       inkscape:connector-curvature="0"
       d="m -67.977228,727.98943 c 1.551381,-1.2438 3.964883,-1.19448 5.435271,0.1695 1.000189,0.91383 1.433967,2.38265 1.261652,3.73811 -0.134808,0.81579 -0.489767,1.56804 -0.850705,2.29764 -0.618052,1.17914 -1.235017,2.36 -1.857418,3.5369 1.173049,0.6797 2.343923,1.3628 3.515885,2.04365 0.288642,0.1746 0.598483,0.3135 0.920827,0.4059 0.554997,0.1638 1.19914,0.012 1.601934,-0.42912 0.600658,-0.62814 0.608811,-1.7591 0.01576,-2.39516 -0.546843,-0.6168 -1.506264,-0.64911 -2.184654,-0.2664 -0.528361,0.32199 -0.715353,0.99207 -0.74525,1.59185 -0.737096,-0.42237 -1.480715,-0.83051 -2.22053,-1.24775 0.259289,-1.19334 1.06542,-2.2251 2.122142,-2.75061 1.647595,-0.83105 3.838228,-0.44612 5.027041,1.04367 1.267088,1.60602 1.24317,4.19165 -0.09078,5.74835 -0.740901,0.88154 -1.869376,1.34696 -2.982087,1.35149 -0.923545,0.0408 -1.780229,-0.38889 -2.590709,-0.79763 -3.052209,-1.71657 -6.07724,-3.48471 -9.119121,-5.2217 -0.459327,-0.234 -0.979534,-0.44163 -1.497567,-0.32031 -0.534884,0.0948 -0.993123,0.51588 -1.175223,1.04538 -0.208736,0.61962 -0.0886,1.37303 0.371266,1.83902 0.543581,0.56973 1.449188,0.60318 2.109639,0.2511 0.556628,-0.30555 0.751773,-0.99549 0.786563,-1.60658 0.739814,0.41495 1.48452,0.82142 2.217812,1.24829 -0.373441,1.81182 -2.055282,3.17522 -3.821921,3.16955 -1.073573,0.0477 -2.175413,-0.31916 -2.972304,-1.08221 -1.801972,-1.69335 -1.700322,-5.09417 0.243525,-6.63047 1.138804,-0.90134 2.750522,-1.12358 4.065989,-0.52775 1.474737,0.62582 2.804337,1.56008 4.236674,2.27891 0.688717,-1.28574 1.380153,-2.56973 2.06724,-3.85661 0.257114,-0.52779 0.470197,-1.14231 0.296251,-1.73472 -0.19134,-0.78116 -0.992036,-1.28855 -1.746526,-1.18367 -0.697959,0.0477 -1.326339,0.63153 -1.427445,1.3583 -0.07121,0.55272 0.0027,1.17744 0.381594,1.60092 0.347892,0.38037 0.865925,0.50226 1.3508,0.53967 -0.403338,0.76986 -0.785475,1.55273 -1.204577,2.31296 -1.568232,-0.36849 -2.810859,-1.82825 -3.000569,-3.48812 -0.202756,-1.48359 0.302775,-3.10037 1.459516,-4.03235"
       id="path3458" />
  </g>
</svg>
