<?xml version="1.0" encoding="UTF-8" standalone="no"?>
<svg
   xmlns:dc="http://purl.org/dc/elements/1.1/"
   xmlns:cc="http://creativecommons.org/ns#"
   xmlns:rdf="http://www.w3.org/1999/02/22-rdf-syntax-ns#"
   xmlns:svg="http://www.w3.org/2000/svg"
   xmlns="http://www.w3.org/2000/svg"
   xmlns:sodipodi="http://sodipodi.sourceforge.net/DTD/sodipodi-0.dtd"
   xmlns:inkscape="http://www.inkscape.org/namespaces/inkscape"
   height="295px"
   version="1.1"
   viewBox="0 0 295 295"
   width="295px"
   id="svg1023"
   sodipodi:docname="toggler-icon.svg"
   inkscape:version="0.92.3 (2405546, 2018-03-11)">
  <metadata
     id="metadata1027">
    <rdf:RDF>
      <cc:Work
         rdf:about="">
        <dc:format>image/svg+xml</dc:format>
        <dc:type
           rdf:resource="http://purl.org/dc/dcmitype/StillImage" />
        <dc:title></dc:title>
      </cc:Work>
    </rdf:RDF>
  </metadata>
  <sodipodi:namedview
     pagecolor="#ffffff"
     bordercolor="#666666"
     borderopacity="1"
     objecttolerance="10"
     gridtolerance="10"
     guidetolerance="10"
     inkscape:pageopacity="0"
     inkscape:pageshadow="2"
     inkscape:window-width="1366"
     inkscape:window-height="723"
     id="namedview1025"
     showgrid="false"
     inkscape:zoom="0.96837674"
     inkscape:cx="286.5346"
     inkscape:cy="113.44232"
     inkscape:window-x="0"
     inkscape:window-y="22"
     inkscape:window-maximized="1"
     inkscape:current-layer="svg1023" />
  <desc
     id="desc1010" />
  <defs
     id="defs1012" />
  <path
     d="M 147.421,0 C 66.133,0 0,66.133 0,147.421 c 0,40.968 17.259,80.425 47.351,108.255 2.433,2.25 6.229,2.101 8.479,-0.331 2.25,-2.434 2.102,-6.229 -0.332,-8.479 C 27.854,221.3 12,185.054 12,147.421 12,72.75 72.75,12 147.421,12 c 74.671,0 135.421,60.75 135.421,135.421 0,74.671 -60.75,135.421 -135.421,135.421 -3.313,0 -6,2.687 -6,6 0,3.313 2.687,6 6,6 81.289,0 147.421,-66.133 147.421,-147.421 C 294.842,66.133 228.71,0 147.421,0 Z"
     id="Shape"
     inkscape:connector-curvature="0"
     style="fill:#5599ff;fill-rule:nonzero;stroke:none;stroke-width:1;fill-opacity:1" />
  <path
     d="m 84.185,90.185 h 126.473 c 3.313,0 6,-2.687 6,-6 0,-3.313 -2.687,-6 -6,-6 H 84.185 c -3.313,0 -6,2.687 -6,6 0,3.313 2.687,6 6,6 z"
     id="path1015"
     inkscape:connector-curvature="0"
     style="fill:#5599ff;fill-rule:nonzero;stroke:none;stroke-width:1;fill-opacity:1" />
  <path
     d="m 84.185,153.421 h 126.473 c 3.313,0 6,-2.687 6,-6 0,-3.313 -2.687,-6 -6,-6 H 84.185 c -3.313,0 -6,2.687 -6,6 0,3.313 2.687,6 6,6 z"
     id="path1017"
     inkscape:connector-curvature="0"
     style="fill:#5599ff;fill-rule:nonzero;stroke:none;stroke-width:1;fill-opacity:1" />
  <path
     d="m 216.658,210.658 c 0,-3.313 -2.687,-6 -6,-6 H 84.185 c -3.313,0 -6,2.687 -6,6 0,3.313 2.687,6 6,6 h 126.473 c 3.313,0 6,-2.687 6,-6 z"
     id="path1019"
     inkscape:connector-curvature="0"
     style="fill:#5599ff;fill-rule:nonzero;stroke:none;stroke-width:1;fill-opacity:1" />
</svg>
