<?xml version="1.0" encoding="UTF-8" standalone="no"?>
<!-- Created with Inkscape (http://www.inkscape.org/) -->

<svg
   xmlns:dc="http://purl.org/dc/elements/1.1/"
   xmlns:cc="http://creativecommons.org/ns#"
   xmlns:rdf="http://www.w3.org/1999/02/22-rdf-syntax-ns#"
   xmlns:svg="http://www.w3.org/2000/svg"
   xmlns="http://www.w3.org/2000/svg"
   xmlns:sodipodi="http://sodipodi.sourceforge.net/DTD/sodipodi-0.dtd"
   xmlns:inkscape="http://www.inkscape.org/namespaces/inkscape"
   width="50mm"
   height="50mm"
   viewBox="0 0 50 50"
   version="1.1"
   id="svg8"
   inkscape:version="0.92.3 (2405546, 2018-03-11)"
   sodipodi:docname="upload-cloud.svg">
  <defs
     id="defs2" />
  <sodipodi:namedview
     id="base"
     pagecolor="#ffffff"
     bordercolor="#666666"
     borderopacity="1.0"
     inkscape:pageopacity="0.0"
     inkscape:pageshadow="2"
     inkscape:zoom="5.6"
     inkscape:cx="127.41572"
     inkscape:cy="80.128126"
     inkscape:document-units="mm"
     inkscape:current-layer="layer1"
     showgrid="false"
     inkscape:window-width="1366"
     inkscape:window-height="723"
     inkscape:window-x="0"
     inkscape:window-y="22"
     inkscape:window-maximized="1" />
  <metadata
     id="metadata5">
    <rdf:RDF>
      <cc:Work
         rdf:about="">
        <dc:format>image/svg+xml</dc:format>
        <dc:type
           rdf:resource="http://purl.org/dc/dcmitype/StillImage" />
        <dc:title />
      </cc:Work>
    </rdf:RDF>
  </metadata>
  <g
     inkscape:label="Layer 1"
     inkscape:groupmode="layer"
     id="layer1"
     transform="translate(-80,-123.5)">
    <a
       id="a821" />
    <rect
       style="fill:#666666;fill-opacity:0.92708333;fill-rule:evenodd;stroke-width:0.26458332"
       id="rect4527"
       width="50"
       height="50"
       x="80"
       y="123.5"
       ry="3.4745045" />
    <path
       sodipodi:nodetypes="cscccccccssccccccccc"
       inkscape:connector-curvature="0"
       style="opacity:0.98999999;fill:none;fill-rule:evenodd;stroke:#ffffff;stroke-width:1.52929163;stroke-miterlimit:4;stroke-dasharray:none"
       d="m 108.98965,156.04729 c 0,0 -0.50535,0.0123 0.0901,-0.004 5.02284,-0.13794 8.98022,-4.24626 8.983,-9.13903 -10e-6,-5.05555 -4.21798,-9.1539 -9.42113,-9.15397 l 4e-5,-3e-5 -4e-5,3e-5 c -4.50684,0.002 -8.38135,3.10406 -9.243844,7.40211 -0.593714,-0.20934 -1.218414,-0.3173 -1.847948,-0.31936 -3.099721,4e-5 -5.612532,2.51285 -5.612577,5.61257 0.0037,2.85073 2.12099,5.42807 4.921307,5.56633 0.01511,7.9e-4 0.03021,10e-4 0.04535,0.002 1.935018,0.0771 0.259494,0.0253 0.391155,0.0313 l -0.625885,-0.0434 0.756124,0.0501 c 0.04149,0.003 0.083,0.005 0.124537,0.006 0.05877,-0.001 0.117517,-0.003 0.17622,-0.006 h 2.644361 -1.38642 1.38642 c 1.14531,0 -0.41833,0.002 -0.44053,0"
       id="path4573" />
    <g
       id="g4621"
       transform="matrix(0.90091651,0,0,0.84521342,10.669096,23.85266)">
      <rect
         ry="0.48078704"
         y="147.18913"
         x="103.78619"
         height="13.512646"
         width="0.9894799"
         id="rect4575"
         style="fill:#ffffff;fill-rule:evenodd;stroke:#ffffff;stroke-width:0.79374999;stroke-miterlimit:4;stroke-dasharray:none" />
      <rect
         ry="0.48781338"
         y="32.389706"
         x="177.78273"
         height="6.6753411"
         width="0.97562677"
         id="rect4581"
         style="fill:#ffffff;fill-rule:evenodd;stroke:#ffffff;stroke-width:0.79391241;stroke-miterlimit:4;stroke-dasharray:none"
         transform="matrix(0.71714714,0.69692179,-0.71714714,0.69692179,0,0)" />
      <rect
         transform="matrix(0.69692179,-0.71714714,0.69692179,0.71714714,0,0)"
         style="fill:#ffffff;fill-rule:evenodd;stroke:#ffffff;stroke-width:0.79391241;stroke-miterlimit:4;stroke-dasharray:none"
         id="rect4616"
         width="0.97562677"
         height="6.6753411"
         x="-28.291912"
         y="176.92876"
         ry="0.48781338" />
    </g>
  </g>
</svg>
