<?xml version="1.0" encoding="UTF-8" standalone="no"?>
<!-- Created with Inkscape (http://www.inkscape.org/) -->

<svg
   xmlns:dc="http://purl.org/dc/elements/1.1/"
   xmlns:cc="http://creativecommons.org/ns#"
   xmlns:rdf="http://www.w3.org/1999/02/22-rdf-syntax-ns#"
   xmlns:svg="http://www.w3.org/2000/svg"
   xmlns="http://www.w3.org/2000/svg"
   xmlns:sodipodi="http://sodipodi.sourceforge.net/DTD/sodipodi-0.dtd"
   xmlns:inkscape="http://www.inkscape.org/namespaces/inkscape"
   version="1.1"
   id="svg815"
   width="50.054588"
   height="50.067863"
   viewBox="0 0 50.054588 50.067863"
   sodipodi:docname="user-add.svg"
   inkscape:version="0.92.3 (2405546, 2018-03-11)">
  <metadata
     id="metadata821">
    <rdf:RDF>
      <cc:Work
         rdf:about="">
        <dc:format>image/svg+xml</dc:format>
        <dc:type
           rdf:resource="http://purl.org/dc/dcmitype/StillImage" />
        <dc:title />
      </cc:Work>
    </rdf:RDF>
  </metadata>
  <defs
     id="defs819" />
  <sodipodi:namedview
     pagecolor="#ffffff"
     bordercolor="#666666"
     borderopacity="1"
     objecttolerance="10"
     gridtolerance="10"
     guidetolerance="10"
     inkscape:pageopacity="0"
     inkscape:pageshadow="2"
     inkscape:window-width="1366"
     inkscape:window-height="723"
     id="namedview817"
     showgrid="false"
     inkscape:zoom="4"
     inkscape:cx="8.0301373"
     inkscape:cy="25.743645"
     inkscape:window-x="0"
     inkscape:window-y="22"
     inkscape:window-maximized="1"
     inkscape:current-layer="svg815" />
  <path
     style="color:#000000;font-style:normal;font-variant:normal;font-weight:normal;font-stretch:normal;font-size:medium;line-height:normal;font-family:sans-serif;font-variant-ligatures:normal;font-variant-position:normal;font-variant-caps:normal;font-variant-numeric:normal;font-variant-alternates:normal;font-feature-settings:normal;text-indent:0;text-align:start;text-decoration:none;text-decoration-line:none;text-decoration-style:solid;text-decoration-color:#000000;letter-spacing:normal;word-spacing:normal;text-transform:none;writing-mode:lr-tb;direction:ltr;text-orientation:mixed;dominant-baseline:auto;baseline-shift:baseline;text-anchor:start;white-space:normal;shape-padding:0;clip-rule:nonzero;display:inline;overflow:visible;visibility:visible;opacity:1;isolation:auto;mix-blend-mode:normal;color-interpolation:sRGB;color-interpolation-filters:linearRGB;solid-color:#000000;solid-opacity:1;vector-effect:none;fill:#000000;fill-opacity:1;fill-rule:nonzero;stroke:none;stroke-width:1.5;stroke-linecap:butt;stroke-linejoin:miter;stroke-miterlimit:4;stroke-dasharray:none;stroke-dashoffset:0;stroke-opacity:1;color-rendering:auto;image-rendering:auto;shape-rendering:auto;text-rendering:auto;enable-background:accumulate"
     d="m 27.107422,-0.11523438 c 0,0 -3.539229,-0.0854002 -6.90625,1.56640628 -1.683511,0.8259032 -3.346559,2.1075275 -4.457031,4.0625 -1.003047,1.7658501 -1.429438,4.1457327 -1.181641,7.0546871 -0.09454,5.23e-4 -0.08336,-0.01182 -0.1875,-0.0059 -0.574929,0.03293 -1.313942,0.135357 -1.951172,0.623047 -0.637229,0.48769 -1.0121,1.443085 -0.77539,2.546875 0.236709,1.10379 0.950667,2.434779 2.375,4.24414 l -0.07031,-0.107421 c 0,0 1.401791,2.593333 3.585937,5.279297 2.184147,2.685963 5.141724,5.563814 8.566407,5.951171 0.05024,0.0058 0.153184,0.02539 0.3125,0.02539 0.0388,0 0.02966,-3e-6 0.06641,0 0,5e-6 0,0.002 0,0.002 1.33e-4,2e-5 0.07371,0.0075 0.08203,0.0078 V 31.125 c 0.05746,10e-6 0.05933,-1.8e-5 0.111328,0 3e-6,4.6e-5 0,0.0059 0,0.0059 3.49e-4,-3.7e-5 -0.0397,0.0032 -0.05078,0.0039 0.01311,-1.59e-4 0.03735,2.18e-4 0.06836,0 0.06201,-4.37e-4 0.150972,-0.0014 0.251954,-0.002 0.201962,-0.0011 0.44894,-8.48e-4 0.609375,-0.002 0.07469,-5.14e-4 0.11804,-0.0011 0.158203,-0.002 0,0 0.113375,-1.492173 0.113281,-1.492187 -9.4e-5,-1.5e-5 -0.04501,-0.0051 -0.05469,-0.0059 -0.01936,-0.0015 -0.02545,-0.0017 -0.03125,-0.002 -0.0116,-4.65e-4 -0.01604,-0.0018 -0.02148,-0.002 -0.02178,-4.21e-4 -0.04256,1.92e-4 -0.08008,0 -0.150068,-7.66e-4 -0.512241,-0.002 -1.222656,-0.002 0.0065,0 -0.04086,-0.004 -0.142578,-0.01563 h -0.002 C 23.617849,29.309008 20.787409,26.766282 18.703125,24.203125 16.618841,21.639968 15.273438,19.15625 15.273438,19.15625 l -0.03125,-0.05664 -0.03906,-0.05078 c -1.349061,-1.713742 -1.93459,-2.916012 -2.087891,-3.630859 -0.1533,-0.714848 -0.0088,-0.865408 0.220704,-1.041016 0.229454,-0.175608 0.703241,-0.294203 1.125,-0.318359 0.421758,-0.02416 0.742187,0.01953 0.742187,0.01953 l 0.980469,0.136719 -0.134766,-0.980469 c -0.428267,-3.113488 0.06757,-5.3389357 1,-6.9804688 0.932431,-1.641533 2.326417,-2.7260297 3.8125,-3.4550781 2.972166,-1.4580967 6.216797,-1.4140625 6.216797,-1.4140625 z M 27.714844,31.128906 c 0.003,-6.4e-5 0.0088,7.2e-5 0.01172,0 0.0053,-1.3e-4 0.0085,-0.0013 0.02148,-0.002 0.0065,-3.08e-4 0.03876,-0.0019 0.03906,-0.002 1.51e-4,-1.5e-5 0.07805,-0.0117 0.07813,-0.01172 7.1e-5,-1.4e-5 -0.15039,0.01563 -0.15039,0.01563 z"
     id="path827"
     inkscape:connector-curvature="0" />
  <path
     style="color:#000000;font-style:normal;font-variant:normal;font-weight:normal;font-stretch:normal;font-size:medium;line-height:normal;font-family:sans-serif;font-variant-ligatures:normal;font-variant-position:normal;font-variant-caps:normal;font-variant-numeric:normal;font-variant-alternates:normal;font-feature-settings:normal;text-indent:0;text-align:start;text-decoration:none;text-decoration-line:none;text-decoration-style:solid;text-decoration-color:#000000;letter-spacing:normal;word-spacing:normal;text-transform:none;writing-mode:lr-tb;direction:ltr;text-orientation:mixed;dominant-baseline:auto;baseline-shift:baseline;text-anchor:start;white-space:normal;shape-padding:0;clip-rule:nonzero;display:inline;overflow:visible;visibility:visible;opacity:1;isolation:auto;mix-blend-mode:normal;color-interpolation:sRGB;color-interpolation-filters:linearRGB;solid-color:#000000;solid-opacity:1;vector-effect:none;fill:#000000;fill-opacity:1;fill-rule:nonzero;stroke:none;stroke-width:1.5;stroke-linecap:butt;stroke-linejoin:miter;stroke-miterlimit:4;stroke-dasharray:none;stroke-dashoffset:0;stroke-opacity:1;color-rendering:auto;image-rendering:auto;shape-rendering:auto;text-rendering:auto;enable-background:accumulate"
     d="m 20.853516,27.580078 c 0,0 -0.43065,0.569434 -1.494141,1.310547 -1.063491,0.741113 -2.719342,1.607191 -5.085937,2.064453 -5.173111,0.999521 -9.551423,4.225911 -12.2304692,7.574219 -2.86105181,3.575791 -1.93945318,8.849609 -1.93945318,8.849609 L 0.1875,47.904297 0.7109375,48 c 0,0 9.8463055,1.793044 19.7363285,2.082031 1.261503,0.0368 2.506013,0.02215 3.695312,0.04883 0.38689,0.0091 0.780045,0.0081 1.111328,0.02539 0.142307,0.0075 0.278954,0.0051 0.56836,0.0078 0.115104,0.0011 0.274438,0.0028 0.410156,0.0039 0.05191,0.0043 0.06087,0.005 0.08984,0.0059 0.02503,7.42e-4 0.07174,0.0012 0.105468,0.002 0.02084,0.007 -0.04885,0.01892 0.113282,0.0098 v -0.0078 c 0.01027,1.7e-4 0.01465,-1.7e-4 0.02539,0 0.206576,0.0033 0.493084,0.0071 0.78125,0.0098 0.288167,0.0027 0.577597,0.0052 0.785156,0.0059 0.10378,3.41e-4 0.186374,5.04e-4 0.244141,0 0.02888,-2.52e-4 0.04114,2.87e-4 0.08398,-0.002 0.01071,-5.6e-4 0.01974,-6.73e-4 0.06055,-0.0059 0.0204,-0.0026 0.138464,-0.03118 0.138672,-0.03125 1.04e-4,-3.4e-5 0.341768,-0.230434 0.341797,-0.230469 3e-5,-3.5e-5 -0.113235,-1.074183 -0.113281,-1.074219 -4.6e-5,-3.6e-5 -0.244019,-0.126916 -0.244141,-0.126953 -1.22e-4,-3.7e-5 -0.07793,-0.01949 -0.07813,-0.01953 -3.97e-4,-7.6e-5 -0.0451,-0.0065 -0.05664,-0.0078 -0.02307,-0.0026 -0.03204,-0.0033 -0.04102,-0.0039 h -0.002 c -0.170895,-0.011 -0.283569,-0.0069 -0.572266,-0.0098 -0.288697,-0.0029 -0.65877,-0.0049 -1.029297,-0.0078 -0.370526,-0.0029 -0.741907,-0.0071 -1.029296,-0.0098 -0.28739,-0.0027 -0.561796,-0.009 -0.501954,-0.0059 -0.395565,-0.02071 -0.800437,-0.01706 -1.15625,-0.02539 -1.223644,-0.02749 -2.464816,-0.01512 -3.6875,-0.05078 C 11.230496,48.311461 2.4682005,46.771337 1.578125,46.613281 1.493182,45.831339 1.1439004,42.052656 3.2128906,39.466797 5.6844294,36.377835 9.8247665,33.342002 14.556641,32.427734 c 2.585882,-0.499631 4.4455,-1.460185 5.660156,-2.30664 1.214655,-0.846455 1.824219,-1.625 1.824219,-1.625 z"
     id="path829"
     inkscape:connector-curvature="0" />
  <path
     style="color:#000000;font-style:normal;font-variant:normal;font-weight:normal;font-stretch:normal;font-size:medium;line-height:normal;font-family:sans-serif;font-variant-ligatures:normal;font-variant-position:normal;font-variant-caps:normal;font-variant-numeric:normal;font-variant-alternates:normal;font-feature-settings:normal;text-indent:0;text-align:start;text-decoration:none;text-decoration-line:none;text-decoration-style:solid;text-decoration-color:#000000;letter-spacing:normal;word-spacing:normal;text-transform:none;writing-mode:lr-tb;direction:ltr;text-orientation:mixed;dominant-baseline:auto;baseline-shift:baseline;text-anchor:start;white-space:normal;shape-padding:0;clip-rule:nonzero;display:inline;overflow:visible;visibility:visible;opacity:1;isolation:auto;mix-blend-mode:normal;color-interpolation:sRGB;color-interpolation-filters:linearRGB;solid-color:#000000;solid-opacity:1;vector-effect:none;fill:#000000;fill-opacity:1;fill-rule:nonzero;stroke:none;stroke-width:1.5;stroke-linecap:butt;stroke-linejoin:miter;stroke-miterlimit:4;stroke-dasharray:none;stroke-dashoffset:0;stroke-opacity:1;color-rendering:auto;image-rendering:auto;shape-rendering:auto;text-rendering:auto;enable-background:accumulate"
     d="m 27.65625,-0.12304688 c -0.192665,-0.00688 -0.372844,0.001137 -0.646484,0.005859 -0.271644,0.004688 -0.527491,0.009691 -0.53125,0.009766 -2.8e-5,5.5e-7 -0.0039,0 -0.0039,0 -5.94e-4,1.322e-5 -0.0014,-1.322e-5 -0.002,0 l 0.0332,1.49999998 c 0,0 0.0019,2e-7 0.002,0 0.148781,-0.00334 0.591797,-0.00781 0.591797,-0.00781 v -0.00195 c 0.253234,-0.00317 0.564282,-0.00506 0.496094,-0.00781 1.165907,0.052722 4.26349,0.3805505 6.771485,1.9921875 2.507994,1.611637 4.524823,4.3762794 3.769531,9.8671875 l -0.134766,0.980469 0.982422,-0.136719 c 0,0 0.320428,-0.04369 0.742187,-0.01953 0.42176,0.02416 0.895546,0.142751 1.125,0.318359 0.229455,0.175608 0.374004,0.326168 0.220704,1.041016 -0.153301,0.714847 -0.738829,1.917117 -2.087891,3.630859 l -0.03906,0.05078 -0.03125,0.05469 c 0,0 -1.409111,2.597257 -3.572265,5.21875 -2.163154,2.621493 -5.079559,5.15052 -7.785156,5.263672 l 0.0625,1.498047 c 3.534538,-0.14782 6.611535,-3.056481 8.880859,-5.806641 2.269324,-2.75016 3.732422,-5.458984 3.732422,-5.458984 l -0.07031,0.107421 c 1.424335,-1.809361 2.140244,-3.14035 2.376953,-4.24414 0.23671,-1.10379 -0.13816,-2.059185 -0.77539,-2.546875 -0.63723,-0.48769 -1.378196,-0.592071 -1.953125,-0.625 -0.09782,-0.0056 -0.08632,0.0066 -0.175781,0.0059 C 40.08754,7.1951386 37.912475,3.8628129 35.177734,2.1054688 32.286101,0.24730548 28.971315,-0.06393292 27.664062,-0.12304688 h -0.0039 z"
     id="path835"
     inkscape:connector-curvature="0" />
  <path
     style="color:#000000;font-style:normal;font-variant:normal;font-weight:normal;font-stretch:normal;font-size:medium;line-height:normal;font-family:sans-serif;font-variant-ligatures:normal;font-variant-position:normal;font-variant-caps:normal;font-variant-numeric:normal;font-variant-alternates:normal;font-feature-settings:normal;text-indent:0;text-align:start;text-decoration:none;text-decoration-line:none;text-decoration-style:solid;text-decoration-color:#000000;letter-spacing:normal;word-spacing:normal;text-transform:none;writing-mode:lr-tb;direction:ltr;text-orientation:mixed;dominant-baseline:auto;baseline-shift:baseline;text-anchor:start;white-space:normal;shape-padding:0;clip-rule:nonzero;display:inline;overflow:visible;visibility:visible;opacity:1;isolation:auto;mix-blend-mode:normal;color-interpolation:sRGB;color-interpolation-filters:linearRGB;solid-color:#000000;solid-opacity:1;vector-effect:none;fill:#000000;fill-opacity:1;fill-rule:evenodd;stroke:none;stroke-width:1.5;stroke-linecap:butt;stroke-linejoin:miter;stroke-miterlimit:4;stroke-dasharray:none;stroke-dashoffset:0;stroke-opacity:1;color-rendering:auto;image-rendering:auto;shape-rendering:auto;text-rendering:auto;enable-background:accumulate"
     d="m 34.660156,33.140625 c -0.859962,0 -1.576172,0.71621 -1.576172,1.576172 v 10.677734 c 0,0.859962 0.71621,1.576172 1.576172,1.576172 h 14.044922 c 0.859962,0 1.576172,-0.71621 1.576172,-1.576172 V 34.716797 c 0,-0.859962 -0.71621,-1.576172 -1.576172,-1.576172 z m 0,1.5 h 14.044922 c 0.05491,0 0.07617,0.02126 0.07617,0.07617 v 10.677734 c 0,0.05491 -0.02126,0.07617 -0.07617,0.07617 H 34.660156 c -0.05491,0 -0.07617,-0.02126 -0.07617,-0.07617 V 34.716797 c 0,-0.05491 0.02126,-0.07617 0.07617,-0.07617 z"
     id="rect886"
     inkscape:connector-curvature="0" />
  <path
     style="color:#000000;font-style:normal;font-variant:normal;font-weight:normal;font-stretch:normal;font-size:medium;line-height:normal;font-family:sans-serif;font-variant-ligatures:normal;font-variant-position:normal;font-variant-caps:normal;font-variant-numeric:normal;font-variant-alternates:normal;font-feature-settings:normal;text-indent:0;text-align:start;text-decoration:none;text-decoration-line:none;text-decoration-style:solid;text-decoration-color:#000000;letter-spacing:normal;word-spacing:normal;text-transform:none;writing-mode:lr-tb;direction:ltr;text-orientation:mixed;dominant-baseline:auto;baseline-shift:baseline;text-anchor:start;white-space:normal;shape-padding:0;clip-rule:nonzero;display:inline;overflow:visible;visibility:visible;opacity:1;isolation:auto;mix-blend-mode:normal;color-interpolation:sRGB;color-interpolation-filters:linearRGB;solid-color:#000000;solid-opacity:1;vector-effect:none;fill:#000000;fill-opacity:1;fill-rule:nonzero;stroke:none;stroke-width:1.5;stroke-linecap:butt;stroke-linejoin:miter;stroke-miterlimit:4;stroke-dasharray:none;stroke-dashoffset:0;stroke-opacity:1;color-rendering:auto;image-rendering:auto;shape-rendering:auto;text-rendering:auto;enable-background:accumulate"
     d="m 33.914062,37.8125 v 1.5 h 15.613282 v -1.5 z"
     id="path888"
     inkscape:connector-curvature="0" />
  <path
     style="color:#000000;font-style:normal;font-variant:normal;font-weight:normal;font-stretch:normal;font-size:medium;line-height:normal;font-family:sans-serif;font-variant-ligatures:normal;font-variant-position:normal;font-variant-caps:normal;font-variant-numeric:normal;font-variant-alternates:normal;font-feature-settings:normal;text-indent:0;text-align:start;text-decoration:none;text-decoration-line:none;text-decoration-style:solid;text-decoration-color:#000000;letter-spacing:normal;word-spacing:normal;text-transform:none;writing-mode:lr-tb;direction:ltr;text-orientation:mixed;dominant-baseline:auto;baseline-shift:baseline;text-anchor:start;white-space:normal;shape-padding:0;clip-rule:nonzero;display:inline;overflow:visible;visibility:visible;opacity:1;isolation:auto;mix-blend-mode:normal;color-interpolation:sRGB;color-interpolation-filters:linearRGB;solid-color:#000000;solid-opacity:1;vector-effect:none;fill:#000000;fill-opacity:1;fill-rule:nonzero;stroke:none;stroke-width:1.5;stroke-linecap:butt;stroke-linejoin:miter;stroke-miterlimit:4;stroke-dasharray:none;stroke-dashoffset:0;stroke-opacity:1;color-rendering:auto;image-rendering:auto;shape-rendering:auto;text-rendering:auto;enable-background:accumulate"
     d="m 34.339844,27.621094 -1.328125,0.699218 c 0,0 0.550005,1.093019 1.349609,1.884766 0.02131,0.0211 0.13658,0.08882 0.1582,0.109375 1.23192,0.694937 1.535571,-0.600643 0.939488,-1.134709 -0.01401,-0.01331 -0.027,-0.02714 -0.04102,-0.04102 -0.530306,-0.525095 -1.078125,-1.517578 -1.078125,-1.517578 z"
     id="path2169"
     inkscape:connector-curvature="0"
     sodipodi:nodetypes="cccccccc" />
  <rect
     style="fill:#000000;fill-rule:evenodd"
     id="rect1197"
     width="2.125"
     height="5.375"
     x="38.3125"
     y="31.255363"
     ry="1.0625" />
  <rect
     ry="1.0625"
     y="31.255363"
     x="38.3125"
     height="5.375"
     width="2.125"
     id="rect1199"
     style="fill:#000000;fill-rule:evenodd" />
  <rect
     style="fill:#000000;fill-rule:evenodd"
     id="rect1203"
     width="2.125"
     height="5.375"
     x="43.25"
     y="31.255363"
     ry="1.0625" />
  <rect
     style="fill:#000000;fill-rule:evenodd;stroke-width:1.18399465"
     id="rect1205"
     width="3.4471455"
     height="3.4471457"
     x="35.841476"
     y="40.566113"
     ry="0.70650393" />
</svg>
