<?xml version="1.0" encoding="UTF-8" standalone="no"?>
<!-- Created with Inkscape (http://www.inkscape.org/) -->

<svg
   xmlns:dc="http://purl.org/dc/elements/1.1/"
   xmlns:cc="http://creativecommons.org/ns#"
   xmlns:rdf="http://www.w3.org/1999/02/22-rdf-syntax-ns#"
   xmlns:svg="http://www.w3.org/2000/svg"
   xmlns="http://www.w3.org/2000/svg"
   xmlns:sodipodi="http://sodipodi.sourceforge.net/DTD/sodipodi-0.dtd"
   xmlns:inkscape="http://www.inkscape.org/namespaces/inkscape"
   version="1.1"
   id="svg815"
   width="49.999943"
   height="49.999779"
   viewBox="0 0 49.999942 49.999778"
   sodipodi:docname="users.svg"
   inkscape:version="0.92.3 (2405546, 2018-03-11)">
  <metadata
     id="metadata821">
    <rdf:RDF>
      <cc:Work
         rdf:about="">
        <dc:format>image/svg+xml</dc:format>
        <dc:type
           rdf:resource="http://purl.org/dc/dcmitype/StillImage" />
        <dc:title />
      </cc:Work>
    </rdf:RDF>
  </metadata>
  <defs
     id="defs819" />
  <sodipodi:namedview
     pagecolor="#ffffff"
     bordercolor="#666666"
     borderopacity="1"
     objecttolerance="10"
     gridtolerance="10"
     guidetolerance="10"
     inkscape:pageopacity="0"
     inkscape:pageshadow="2"
     inkscape:window-width="1366"
     inkscape:window-height="723"
     id="namedview817"
     showgrid="false"
     inkscape:zoom="2.8528393"
     inkscape:cx="30.947836"
     inkscape:cy="37.00634"
     inkscape:window-x="0"
     inkscape:window-y="22"
     inkscape:window-maximized="1"
     inkscape:current-layer="svg815" />
  <path
     style="color:#000000;font-style:normal;font-variant:normal;font-weight:normal;font-stretch:normal;font-size:medium;line-height:normal;font-family:sans-serif;font-variant-ligatures:normal;font-variant-position:normal;font-variant-caps:normal;font-variant-numeric:normal;font-variant-alternates:normal;font-feature-settings:normal;text-indent:0;text-align:start;text-decoration:none;text-decoration-line:none;text-decoration-style:solid;text-decoration-color:#000000;letter-spacing:normal;word-spacing:normal;text-transform:none;writing-mode:lr-tb;direction:ltr;text-orientation:mixed;dominant-baseline:auto;baseline-shift:baseline;text-anchor:start;white-space:normal;shape-padding:0;clip-rule:nonzero;display:inline;overflow:visible;visibility:visible;opacity:1;isolation:auto;mix-blend-mode:normal;color-interpolation:sRGB;color-interpolation-filters:linearRGB;solid-color:#000000;solid-opacity:1;vector-effect:none;fill:#000000;fill-opacity:1;fill-rule:nonzero;stroke:none;stroke-width:1.52231789;stroke-linecap:butt;stroke-linejoin:miter;stroke-miterlimit:4;stroke-dasharray:none;stroke-dashoffset:0;stroke-opacity:1;color-rendering:auto;image-rendering:auto;shape-rendering:auto;text-rendering:auto;enable-background:accumulate"
     d="m 19.730253,5.858448 c 0,0 -2.62916,-0.078498 -5.117737,1.4058192 -2.349551,1.4013941 -4.439315,4.3935498 -4.115925,9.6577988 -0.458904,0.03607 -1.0192427,0.163788 -1.5056817,0.616413 -0.5081811,0.472855 -0.760373,1.299544 -0.5908122,2.260844 0.1683835,0.954624 0.6879699,2.124287 1.7013019,3.6945 0.03315,0.07428 0.99054,2.22824 2.539109,4.54356 1.574649,2.354314 3.670723,4.923955 6.31912,5.289221 0.02407,0.0034 0.11287,0.02585 0.268731,0.02585 0.01274,0 0.0093,-1e-6 0.02173,0 0.02766,0.0035 0.06042,0.0076 0.06719,0.0079 v -0.0079 c 0.07419,1.3e-5 0.07819,-3.4e-5 0.140294,0 -6e-6,10e-6 -0.002,0.002 -0.002,0.002 2.79e-4,-3.7e-5 -0.06657,0.0058 -0.07113,0.006 0.0083,-1.19e-4 0.02439,1.83e-4 0.04545,0 0.04395,-3.8e-4 0.107367,-0.0015 0.179813,-0.002 0.144888,-9.23e-4 0.322628,-0.001 0.438662,-0.002 0.03927,-3.29e-4 0.06132,-0.0016 0.08695,-0.002 0.01222,-1.91e-4 0.02802,4.02e-4 0.0415,0 0.0053,-1.56e-4 0.0086,-0.0011 0.02371,-0.002 0.0076,-4.38e-4 0.04523,-0.004 0.04545,-0.004 1.08e-4,-1.3e-5 0.09479,-0.01589 0.09485,-0.01591 5e-5,-1.3e-5 0.488062,-0.381779 0.488062,-0.381779 0,0 -0.533442,-1.111519 -0.533509,-1.111531 -6.8e-5,-1.3e-5 -0.0631,-0.0079 -0.06323,-0.0079 -2.55e-4,-2.5e-5 -0.03083,-0.0037 -0.03754,-0.004 -0.01344,-6.53e-4 -0.01847,1.23e-4 -0.02371,0 -0.02093,-4.91e-4 -0.03569,-0.0018 -0.06323,-0.002 -0.110155,-6.82e-4 -0.368945,0 -0.879303,0 0.04608,0 0.0258,-2.8e-5 -0.05927,-0.01193 h -0.002 c -1.717423,-0.236287 -3.777587,-2.400831 -5.267992,-4.629188 -1.490405,-2.228358 -2.456118,-4.392439 -2.456118,-4.392439 l -0.02569,-0.05568 -0.03162,-0.04971 c -0.964247,-1.48924 -1.38132,-2.529007 -1.4918486,-3.155636 -0.110529,-0.626628 0.01222,-0.764635 0.1264606,-0.870932 0.228477,-0.212595 1.10061,-0.196854 1.10061,-0.196854 l 0.993908,0.169017 -0.11263,-1.008134 C 11.386387,12.18097 13.323012,9.8095538 15.386998,8.5784852 17.450985,7.347417 19.694592,7.3834395 19.694592,7.3834395 Z m 0.199572,26.356625 c 0.04904,0.04132 0.136341,0.11334 0.136341,0.11334 0,0 -0.109691,0.182249 -0.191668,0.320137 0.0271,-0.212992 0.03414,-0.266951 0.05533,-0.433477 z"
     id="path827"
     inkscape:connector-curvature="0" />
  <path
     style="color:#000000;font-style:normal;font-variant:normal;font-weight:normal;font-stretch:normal;font-size:medium;line-height:normal;font-family:sans-serif;font-variant-ligatures:normal;font-variant-position:normal;font-variant-caps:normal;font-variant-numeric:normal;font-variant-alternates:normal;font-feature-settings:normal;text-indent:0;text-align:start;text-decoration:none;text-decoration-line:none;text-decoration-style:solid;text-decoration-color:#000000;letter-spacing:normal;word-spacing:normal;text-transform:none;writing-mode:lr-tb;direction:ltr;text-orientation:mixed;dominant-baseline:auto;baseline-shift:baseline;text-anchor:start;white-space:normal;shape-padding:0;clip-rule:nonzero;display:inline;overflow:visible;visibility:visible;opacity:1;isolation:auto;mix-blend-mode:normal;color-interpolation:sRGB;color-interpolation-filters:linearRGB;solid-color:#000000;solid-opacity:1;vector-effect:none;fill:#000000;fill-opacity:1;fill-rule:nonzero;stroke:none;stroke-width:1.52231789;stroke-linecap:butt;stroke-linejoin:miter;stroke-miterlimit:4;stroke-dasharray:none;stroke-dashoffset:0;stroke-opacity:1;color-rendering:auto;image-rendering:auto;shape-rendering:auto;text-rendering:auto;enable-background:accumulate"
     d="m 15.019564,30.135176 c 0,0 -1.289067,2.083302 -4.584228,2.857372 -3.8197981,0.897309 -6.9883903,3.759644 -8.9254126,6.702994 -2.09059394,3.176715 -1.40095582,7.734988 -1.40095581,7.734988 l 0.0691586,0.532899 0.52165352,0.115329 c 0,0 7.08793649,1.569702 14.22888929,1.823389 0.916383,0.0325 1.811657,0.02263 2.657668,0.04573 0.28652,0.0082 0.564439,0.0057 0.786431,0.01988 0.153657,0.0099 0.216475,0.0056 0.424832,0.0079 0.07501,8.5e-4 0.179432,0.0011 0.266755,0.002 0.0046,4.6e-5 0.0093,0.0019 0.01383,0.002 0.03583,0.0032 0.05201,0.0033 0.07113,0.004 0.03115,0.0011 0.07818,10e-4 0.12251,0.002 0.03199,0.0037 -0.07918,0.01785 0.0652,0.0079 v -0.006 c 0.149347,0.0029 0.350642,0.0056 0.555245,0.0079 0.207515,0.0023 0.414718,0.0034 0.565124,0.004 0.0752,2.99e-4 0.134869,4.74e-4 0.179812,0 0.02247,-2.37e-4 0.02933,10e-4 0.07706,-0.002 0.01194,-7.54e-4 0.02252,-4.78e-4 0.07113,-0.0079 0.01215,-0.0018 0.04927,-0.0079 0.0494,-0.0079 1.28e-4,-2.8e-5 0.112555,-0.03576 0.11263,-0.0358 7.4e-5,-3e-5 0.345772,-0.272384 0.345793,-0.272415 2.1e-5,-3e-5 -0.102717,-0.994183 -0.10275,-0.994215 -3.3e-5,-3e-5 -0.260739,-0.16103 -0.260827,-0.161062 -8.8e-5,-3.2e-5 -0.08878,-0.0278 -0.08892,-0.02783 -2.85e-4,-6.6e-5 -0.05559,-0.01008 -0.06916,-0.01193 -0.02713,-0.0037 -0.03787,-0.0052 -0.04742,-0.006 -0.09434,-0.0074 -0.101078,-0.0047 -0.169933,-0.006 -0.06886,-0.0012 -0.158817,-7.3e-4 -0.262802,-0.002 -0.207969,-0.0025 -0.472883,-0.0054 -0.739009,-0.0079 -0.266128,-0.0025 -0.533133,-0.0056 -0.73901,-0.0079 -0.205875,-0.0023 -0.43825,-0.01008 -0.343817,-0.004 -0.300269,-0.01914 -0.59441,-0.01679 -0.841759,-0.02386 -0.887268,-0.02428 -1.777651,-0.01301 -2.645796,-0.0438 C 8.4925852,48.14648 2.4559248,46.875614 1.6106974,46.694812 1.5497796,45.922716 1.3445143,42.711596 2.774538,40.538636 4.53647,37.861339 7.4875434,35.25359 10.781129,34.479893 c 3.8182,-0.896937 5.516881,-3.521507 5.516881,-3.521508 z"
     id="path829"
     inkscape:connector-curvature="0" />
  <path
     style="color:#000000;font-style:normal;font-variant:normal;font-weight:normal;font-stretch:normal;font-size:medium;line-height:normal;font-family:sans-serif;font-variant-ligatures:normal;font-variant-position:normal;font-variant-caps:normal;font-variant-numeric:normal;font-variant-alternates:normal;font-feature-settings:normal;text-indent:0;text-align:start;text-decoration:none;text-decoration-line:none;text-decoration-style:solid;text-decoration-color:#000000;letter-spacing:normal;word-spacing:normal;text-transform:none;writing-mode:lr-tb;direction:ltr;text-orientation:mixed;dominant-baseline:auto;baseline-shift:baseline;text-anchor:start;white-space:normal;shape-padding:0;clip-rule:nonzero;display:inline;overflow:visible;visibility:visible;opacity:1;isolation:auto;mix-blend-mode:normal;color-interpolation:sRGB;color-interpolation-filters:linearRGB;solid-color:#000000;solid-opacity:1;vector-effect:none;fill:#000000;fill-opacity:1;fill-rule:nonzero;stroke:none;stroke-width:1.52231789;stroke-linecap:butt;stroke-linejoin:miter;stroke-miterlimit:4;stroke-dasharray:none;stroke-dashoffset:0;stroke-opacity:1;color-rendering:auto;image-rendering:auto;shape-rendering:auto;text-rendering:auto;enable-background:accumulate"
     d="m 19.92785,5.8504943 c -0.08272,0.00128 -0.183994,0.0039 -0.282563,0.00597 -0.195109,0.00409 -0.375581,0.00786 -0.379384,0.00795 -4e-5,1e-6 -0.0039,0 -0.0039,0 -6.37e-4,1.73e-5 -0.0013,-1.72e-5 -0.002,0 l 0.03754,1.5271134 c 0,0 0.0019,2e-7 0.002,0 0.09779,-0.00267 0.420879,-0.00597 0.420879,-0.00597 v -0.00398 c 0.08179,-0.00167 0.165806,-0.00296 0.231188,-0.00398 0.07098,-0.0011 0.141305,-8.26e-5 0.104726,-0.00199 0.801802,0.044082 2.961901,0.3210059 4.706738,1.6841993 1.744835,1.363193 3.204622,3.764675 2.661618,8.564162 l -0.114606,1.008135 0.993909,-0.169017 c 0,0 0.872133,-0.01574 1.100609,0.196853 0.114238,0.106298 0.236991,0.244304 0.126461,0.870932 -0.110529,0.62663 -0.5276,1.666397 -1.491849,3.155637 l -0.03162,0.04971 -0.02371,0.05568 c 0,0 -1.010424,2.26299 -2.556892,4.541572 -0.773235,1.139289 -1.680416,2.276066 -2.624075,3.11189 -0.943659,0.835826 -1.904915,1.34581 -2.772273,1.389913 l 0.07706,1.525125 c 1.373356,-0.06983 2.606699,-0.803973 3.697022,-1.769703 1.090322,-0.965729 2.056637,-2.188431 2.875022,-3.394247 1.601493,-2.359656 2.587816,-4.577948 2.631979,-4.676785 l 0.0039,-0.0079 c 1.023064,-1.581698 1.540011,-2.753181 1.709206,-3.712396 0.16956,-0.9613 -0.08065,-1.787988 -0.588837,-2.260844 -0.4827,-0.449163 -1.036802,-0.574868 -1.493818,-0.612447 C 29.233057,12.308401 27.694193,9.4157725 25.693701,7.8528421 23.56073,6.1864095 21.113604,5.9040612 20.139277,5.8504943 h -0.0039 -0.0039 c -0.104885,-0.00455 -0.120807,-0.00128 -0.203523,0 z"
     id="path835"
     inkscape:connector-curvature="0" />
  <path
     style="color:#000000;font-style:normal;font-variant:normal;font-weight:normal;font-stretch:normal;font-size:medium;line-height:normal;font-family:sans-serif;font-variant-ligatures:normal;font-variant-position:normal;font-variant-caps:normal;font-variant-numeric:normal;font-variant-alternates:normal;font-feature-settings:normal;text-indent:0;text-align:start;text-decoration:none;text-decoration-line:none;text-decoration-style:solid;text-decoration-color:#000000;letter-spacing:normal;word-spacing:normal;text-transform:none;writing-mode:lr-tb;direction:ltr;text-orientation:mixed;dominant-baseline:auto;baseline-shift:baseline;text-anchor:start;white-space:normal;shape-padding:0;clip-rule:nonzero;display:inline;overflow:visible;visibility:visible;opacity:1;isolation:auto;mix-blend-mode:normal;color-interpolation:sRGB;color-interpolation-filters:linearRGB;solid-color:#000000;solid-opacity:1;vector-effect:none;fill:#000000;fill-opacity:1;fill-rule:nonzero;stroke:none;stroke-width:1.52231789;stroke-linecap:butt;stroke-linejoin:miter;stroke-miterlimit:4;stroke-dasharray:none;stroke-dashoffset:0;stroke-opacity:1;color-rendering:auto;image-rendering:auto;shape-rendering:auto;text-rendering:auto;enable-background:accumulate"
     d="m 24.919125,30.135176 -1.280423,0.823209 c 0,0 1.700657,2.624571 5.518858,3.521508 3.293586,0.773697 6.242683,3.381446 8.004615,6.058743 1.430019,2.172953 1.226735,5.384064 1.165817,6.156176 -0.844897,0.180733 -6.883661,1.451661 -13.373299,1.682211 -0.868147,0.03079 -1.758529,0.01952 -2.645812,0.04375 -0.247348,0.007 -0.539514,0.0047 -0.839783,0.02386 h -0.002 c 0.09443,-0.0061 -0.137941,0.0016 -0.343818,0.004 -0.205875,0.0023 -0.472881,0.0054 -0.739009,0.0079 -0.266126,0.0025 -0.531039,0.0054 -0.739008,0.0079 -0.103985,0.0012 -0.193951,7.47e-4 -0.262803,0.002 -0.06886,0.0012 -0.07559,-0.0014 -0.169933,0.006 -0.0095,7.57e-4 -0.02029,0.0022 -0.04742,0.006 -0.01357,0.0018 -0.06689,0.01186 -0.06719,0.01193 -1.42e-4,3.2e-5 -0.09081,0.0278 -0.09089,0.02783 -8.7e-5,3.3e-5 -0.260793,0.161032 -0.260826,0.161063 -3.4e-5,3.1e-5 -0.100795,0.994184 -0.100775,0.994215 2.1e-5,3e-5 0.343742,0.272385 0.343817,0.272414 7.5e-5,3e-5 0.112502,0.03577 0.11263,0.0358 1.28e-4,2.8e-5 0.03922,0.0061 0.05137,0.0079 0.04861,0.0074 0.05722,0.0072 0.06916,0.0079 0.04773,0.0031 0.05459,0.0017 0.07706,0.002 0.04495,4.73e-4 0.104609,2.98e-4 0.179812,0 0.150407,-5.99e-4 0.35761,-0.0016 0.565125,-0.004 0.203888,-0.0023 0.406041,-0.0051 0.555245,-0.0079 v 0.006 c 0.140064,0.0096 0.02895,-0.0047 0.06323,-0.0079 0.04622,-10e-4 0.09431,-8.29e-4 0.126461,-0.002 0.01903,-6.86e-4 0.03377,-8.67e-4 0.06916,-0.004 0.0071,-6.25e-4 0.0038,-9.8e-4 0.01383,-0.002 0.08758,-8.85e-4 0.191549,-0.0011 0.266755,-0.002 0.208357,-0.0023 0.271175,0.0019 0.424832,-0.0079 0.221436,-0.01411 0.500668,-0.01176 0.786432,-0.01988 0.846011,-0.02311 1.741283,-0.01324 2.657667,-0.04573 7.140953,-0.253687 14.22889,-1.823389 14.22889,-1.823389 l 0.5217,-0.115408 0.06914,-0.532899 c 0,0 0.689639,-4.558273 -1.400955,-7.734988 -1.937021,-2.94335 -5.105614,-5.805685 -8.925413,-6.702994 -3.295163,-0.77407 -4.582252,-2.857372 -4.582252,-2.857372 z"
     id="path2737"
     inkscape:connector-curvature="0" />
  <path
     style="color:#000000;font-style:normal;font-variant:normal;font-weight:normal;font-stretch:normal;font-size:medium;line-height:normal;font-family:sans-serif;font-variant-ligatures:normal;font-variant-position:normal;font-variant-caps:normal;font-variant-numeric:normal;font-variant-alternates:normal;font-feature-settings:normal;text-indent:0;text-align:start;text-decoration:none;text-decoration-line:none;text-decoration-style:solid;text-decoration-color:#000000;letter-spacing:normal;word-spacing:normal;text-transform:none;writing-mode:lr-tb;direction:ltr;text-orientation:mixed;dominant-baseline:auto;baseline-shift:baseline;text-anchor:start;white-space:normal;shape-padding:0;clip-rule:nonzero;display:inline;overflow:visible;visibility:visible;opacity:1;isolation:auto;mix-blend-mode:normal;color-interpolation:sRGB;color-interpolation-filters:linearRGB;solid-color:#000000;solid-opacity:1;vector-effect:none;fill:#000000;fill-opacity:1;fill-rule:nonzero;stroke:none;stroke-width:1.52231789;stroke-linecap:butt;stroke-linejoin:miter;stroke-miterlimit:4;stroke-dasharray:none;stroke-dashoffset:0;stroke-opacity:1;color-rendering:auto;image-rendering:auto;shape-rendering:auto;text-rendering:auto;enable-background:accumulate"
     d="M 32.761712,0.12381914 C 31.831953,-0.05573027 30.954654,-0.03386873 30.14554,0.14966874 28.527313,0.51674364 27.221472,1.4878448 26.207451,2.5735635 24.179409,4.7450009 23.215848,7.4690754 23.215848,7.4690754 l 1.424667,0.5229568 c 0,0 0.91855,-2.4935466 2.673474,-4.3725551 0.877463,-0.9395042 1.940186,-1.700542 3.165488,-1.9784867 1.225303,-0.2779447 2.651518,-0.1143884 4.420224,0.9703533 l 0.03557,0.021872 0.03754,0.017896 c 0,0 0.977235,0.4489194 2.086614,1.7716902 1.10938,1.3227707 2.296252,3.4788945 2.521326,6.9097911 l 0.0039,-0.143167 c 0,0 -0.110861,1.082712 0.369505,2.809649 0.480366,1.726937 1.54009,4.186994 3.825459,7.235893 l -0.02173,-0.02783 c 0,0 0.384507,0.508257 0.02371,1.111531 -0.360797,0.603272 -1.904355,1.673972 -6.751857,1.879066 l -0.03162,0.002 -0.03161,0.004 c 0,0 -0.342373,0.03662 -0.721226,0.19089 -0.189427,0.07713 -0.401651,0.183764 -0.60662,0.373824 -0.204969,0.19006 -0.40327,0.498987 -0.438663,0.864967 -0.07079,0.73196 0.381445,1.332501 1.179648,1.992405 0.798203,0.659905 2.055312,1.43356 4.058622,2.415942 0.01724,0.0091 2.004654,1.054884 4.032935,2.431848 1.018527,0.69146 2.040113,1.464117 2.794008,2.197214 0.724367,0.704382 1.105752,1.365247 1.167793,1.704083 -0.01306,0.05421 -0.0059,0.08011 -0.128437,0.336045 -0.172688,0.360655 -0.498603,0.904279 -1.104562,1.570859 -1.211918,1.333158 -3.551954,3.157172 -8.034255,4.903465 l 0.547341,1.425704 c 4.648231,-1.810939 7.203683,-3.753157 8.607284,-5.297175 0.7018,-0.772008 1.114082,-1.444748 1.351556,-1.940706 0.237473,-0.49596 0.312202,-0.880875 0.312202,-0.880875 l 0.01581,-0.103398 -0.0099,-0.103398 c -0.108849,-1.037993 -0.811641,-1.87599 -1.671637,-2.712262 -0.859998,-0.836271 -1.935536,-1.645259 -2.997533,-2.36623 -2.123995,-1.441943 -4.200891,-2.529282 -4.200891,-2.529282 l -0.0079,-0.004 -0.0099,-0.004 c -1.943747,-0.953174 -3.122891,-1.698121 -3.760253,-2.225052 -0.581816,-0.481009 -0.566433,-0.654932 -0.57698,-0.60647 0.02124,-0.01137 0.02246,-0.01687 0.0494,-0.02783 0.159111,-0.06479 0.339865,-0.09146 0.339865,-0.09146 l -0.06126,0.006 c 5.043912,-0.213403 7.160733,-1.23417 7.988807,-2.618761 0.828074,-1.384592 -0.07113,-2.761928 -0.07113,-2.761928 l -0.0099,-0.01392 -0.0099,-0.01392 C 42.806047,17.401605 41.841759,15.116947 41.41632,13.587469 40.99088,12.057993 41.090286,11.37236 41.090286,11.37236 l 0.0099,-0.0696 -0.006,-0.07158 C 40.848641,7.4859458 39.51422,4.9805249 38.219314,3.4365417 36.96216,1.9375717 35.735473,1.332633 35.662421,1.2969922 34.656338,0.68377891 33.683357,0.30180184 32.761712,0.12381914 Z"
     id="path2753"
     inkscape:connector-curvature="0" />
</svg>
